<svg xmlns="http://www.w3.org/2000/svg" width="32" height="32" viewBox="0 0 32 32" fill="none">
  <rect width="32" height="32" rx="8" fill="#1A5BB3"/>
  <path d="M16 9C13.7909 9 12 10.7909 12 13C12 15.2091 13.7909 17 16 17C18.2091 17 20 15.2091 20 13C20 10.7909 18.2091 9 16 9ZM10 13C10 9.68629 12.6863 7 16 7C19.3137 7 22 9.68629 22 13C22 16.3137 19.3137 19 16 19C12.6863 19 10 16.3137 10 13Z" fill="white"/>
  <path d="M8 23C8 21.3431 9.34315 20 11 20H21C22.6569 20 24 21.3431 24 23V24C24 24.5523 23.5523 25 23 25H9C8.44772 25 8 24.5523 8 24V23Z" fill="white"/>
</svg>